<?xml version="1.0" encoding="iso-8859-1"?>
<!-- Generator: Adobe Illustrator 19.0.0, SVG Export Plug-In . SVG Version: 6.00 Build 0)  -->
<svg xmlns="http://www.w3.org/2000/svg" xmlns:xlink="http://www.w3.org/1999/xlink" version="1.1" id="Capa_1" x="0px" y="0px" viewBox="0 0 454.55 454.55" style="enable-background:new 0 0 454.55 454.55;" xml:space="preserve" width="512px" height="512px">
<g>
	<g>
		<path d="M449.838,201.691l-55.38-36.571l55.38-37.094c3.061-1.89,4.86-5.288,4.702-8.882c-0.025-3.549-2.045-6.782-5.224-8.359    L315.046,29.283c-2.977-1.938-6.763-2.137-9.927-0.522l-77.845,40.229L149.43,28.76c-3.164-1.614-6.95-1.415-9.927,0.522    L5.234,110.785c-3.179,1.577-5.2,4.81-5.224,8.359c-0.158,3.594,1.641,6.992,4.702,8.882l55.902,37.094L4.712,201.691    c-2.982,1.963-4.755,5.312-4.702,8.882c0.358,3.719,2.502,7.031,5.747,8.882l64.784,38.661v59.559    c-0.382,14.721,7.208,28.502,19.853,36.049l116.506,67.918c6.218,3.495,13.244,5.296,20.376,5.224    c7.306,0.139,14.517-1.664,20.898-5.224l115.984-67.918c12.815-7.382,20.465-21.273,19.853-36.049v-60.082l64.261-38.139    c3.245-1.851,5.389-5.163,5.747-8.882C454.288,207.082,452.7,203.707,449.838,201.691z M309.299,50.181l115.461,69.486    l-49.633,32.914l-125.91-71.576L309.299,50.181z M29.789,119.666L145.25,50.181l60.082,30.825L79.944,152.581L29.789,119.666z     M29.789,210.05l50.155-32.914l125.388,71.053l-60.082,31.869L29.789,210.05z M216.826,403.356L100.842,335.96    c-6.124-4.025-9.692-10.963-9.404-18.286v-47.02l48.588,30.302c1.534,1.058,3.362,1.606,5.224,1.567    c1.69-0.035,3.329-0.582,4.702-1.567l66.873-35.004V403.356z M100.842,165.12l126.433-72.098L354.23,165.12l-126.955,71.576    L100.842,165.12z M353.708,335.96l-115.984,67.094V265.952l67.396,35.004c1.373,0.986,3.012,1.532,4.702,1.567    c1.547,0.062,3.055-0.503,4.18-1.567l49.11-30.824v47.543C363.4,324.997,359.831,331.936,353.708,335.96z M309.299,280.058    l-60.082-31.869l125.91-71.053l49.633,32.914L309.299,280.058z" fill="#FFFFFF"/>
	</g>
</g>
<g>
</g>
<g>
</g>
<g>
</g>
<g>
</g>
<g>
</g>
<g>
</g>
<g>
</g>
<g>
</g>
<g>
</g>
<g>
</g>
<g>
</g>
<g>
</g>
<g>
</g>
<g>
</g>
<g>
</g>
</svg>
